<?xml version="1.0" encoding="utf-8"?>
<!-- Generator: Adobe Illustrator 16.0.0, SVG Export Plug-In . SVG Version: 6.00 Build 0)  -->
<!DOCTYPE svg PUBLIC "-//W3C//DTD SVG 1.1//EN" "http://www.w3.org/Graphics/SVG/1.1/DTD/svg11.dtd">
<svg version="1.1" id="Layer_1" xmlns="http://www.w3.org/2000/svg" xmlns:xlink="http://www.w3.org/1999/xlink" x="0px" y="0px"
	 width="32px" height="32px" viewBox="0 0 32 32" enable-background="new 0 0 32 32" xml:space="preserve">
<path fill="#FFFFFF" stroke="#1B1B1B" stroke-width="2" stroke-miterlimit="10" d="M65.402,28.704l-2.534-2.534h-0.149v-0.15
	l-5.892-5.891l0.147-0.18c1.639-1.965,2.541-4.45,2.541-7.001C59.516,6.911,54.605,2,48.57,2S37.625,6.911,37.625,12.948
	c0,6.036,4.91,10.948,10.945,10.948c2.549,0,5.033-0.901,6.998-2.541l0.179-0.146l8.573,8.575c0.289,0.288,0.793,0.288,1.08,0
	c0.145-0.146,0.225-0.337,0.225-0.54C65.627,29.04,65.547,28.848,65.402,28.704z M48.57,22.369c-5.191,0-9.418-4.227-9.418-9.421
	s4.227-9.421,9.418-9.421c5.193,0,9.418,4.227,9.418,9.421C57.988,18.145,53.764,22.369,48.57,22.369z"/>
<g>
	<path fill="#FFFFFF" stroke="#FFFFFF" stroke-width="2" stroke-miterlimit="10" d="M-8.75,5.379c0,0.694-0.57,1.267-1.268,1.267
		h-25.466c-0.695,0-1.267-0.572-1.267-1.267v-0.2c0-0.696,0.571-1.267,1.267-1.267h25.466c0.697,0,1.268,0.57,1.268,1.267V5.379z"/>
	<path fill="#FFFFFF" stroke="#FFFFFF" stroke-width="2" stroke-miterlimit="10" d="M-8.75,16.099c0,0.697-0.57,1.267-1.268,1.267
		h-25.466c-0.695,0-1.267-0.569-1.267-1.267V15.9c0-0.696,0.571-1.265,1.267-1.265h25.466c0.697,0,1.268,0.568,1.268,1.265V16.099z"
		/>
	<path fill="#FFFFFF" stroke="#FFFFFF" stroke-width="2" stroke-miterlimit="10" d="M-8.75,26.82c0,0.697-0.57,1.268-1.268,1.268
		h-25.466c-0.695,0-1.267-0.57-1.267-1.268v-0.199c0-0.695,0.571-1.266,1.267-1.266h25.466c0.697,0,1.268,0.569,1.268,1.266V26.82z"
		/>
</g>
<g>
	
		<rect x="-89.534" y="14.072" transform="matrix(-0.7071 0.7071 -0.7071 -0.7071 -108.6111 76.9876)" fill="#1B1B1B" width="38.569" height="3.857"/>
	
		<rect x="-89.535" y="14.071" transform="matrix(-0.7071 -0.7071 0.7071 -0.7071 -131.238 -22.3605)" fill="#1B1B1B" width="38.569" height="3.857"/>
</g>
<path fill="#1B1B1B" d="M30.025,15.162H4.024l9.569-9.571c0.161-0.161,0.249-0.374,0.249-0.6c0-0.227-0.088-0.439-0.249-0.599
	c-0.16-0.162-0.374-0.25-0.601-0.25s-0.44,0.088-0.601,0.249L1.374,15.41c-0.04,0.039-0.074,0.083-0.105,0.13l-0.127,0.31
	c-0.01,0.047-0.017,0.102-0.017,0.16c0.001,0.054,0.005,0.111,0.017,0.166l0.133,0.315c0.024,0.036,0.057,0.078,0.097,0.117
	l11.021,11.021c0.305,0.305,0.897,0.305,1.201,0c0.331-0.33,0.331-0.869,0-1.201l-9.57-9.568h26.001c0.469,0,0.85-0.381,0.85-0.85
	C30.875,15.543,30.494,15.162,30.025,15.162z"/>
</svg>
