<?xml version="1.0" encoding="utf-8"?>
<!-- Generator: Adobe Illustrator 16.0.0, SVG Export Plug-In . SVG Version: 6.00 Build 0)  -->
<!DOCTYPE svg PUBLIC "-//W3C//DTD SVG 1.1//EN" "http://www.w3.org/Graphics/SVG/1.1/DTD/svg11.dtd">
<svg version="1.1" id="Layer_1" xmlns="http://www.w3.org/2000/svg" xmlns:xlink="http://www.w3.org/1999/xlink" x="0px" y="0px"
	 width="32px" height="32px" viewBox="15 0 32 32" enable-background="new 15 0 32 32" xml:space="preserve">
<path fill="#FFFFFF" stroke="#FFFFFF" stroke-width="2" stroke-miterlimit="10" d="M44.777,28.704l-2.534-2.534h-0.149v-0.15
	l-5.892-5.891l0.147-0.18c1.64-1.965,2.541-4.45,2.541-7.001C38.891,6.911,33.981,2,27.945,2C21.91,2,17,6.911,17,12.948
	c0,6.036,4.91,10.948,10.945,10.948c2.549,0,5.034-0.901,6.998-2.541l0.179-0.146l8.574,8.575c0.289,0.288,0.792,0.288,1.08,0
	C44.92,29.639,45,29.447,45,29.244C45.002,29.04,44.922,28.848,44.777,28.704z M27.946,22.369c-5.192,0-9.418-4.227-9.418-9.421
	s4.226-9.421,9.418-9.421s9.418,4.227,9.418,9.421C37.364,18.145,33.139,22.369,27.946,22.369z"/>
</svg>
